<?xml version="1.0" encoding="UTF-8"?>
<svg width="1024" height="1024" viewBox="0 0 100 100" xmlns="http://www.w3.org/2000/svg">
  <defs>
    <linearGradient id="iconGradient" x1="0%" y1="0%" x2="100%" y2="100%">
      <stop offset="0%" stop-color="#A5B4FC"/>
      <stop offset="40%" stop-color="#6366F1"/>
      <stop offset="100%" stop-color="#4F46E5"/>
    </linearGradient>
    <linearGradient id="shineGradient" x1="0%" y1="0%" x2="0%" y2="100%">
      <stop offset="0%" stop-color="white" stop-opacity="0.25"/>
      <stop offset="50%" stop-color="white" stop-opacity="0.05"/>
      <stop offset="100%" stop-color="white" stop-opacity="0"/>
    </linearGradient>
  </defs>

  <!-- 배경 - 둥근 사각형 (iOS 스타일) -->
  <rect x="0" y="0" width="100" height="100" rx="22" ry="22" fill="url(#iconGradient)"/>

  <!-- 상단 광택 효과 -->
  <path d="M22 0 L78 0 Q100 0 100 22 L100 45 Q50 55 0 45 L0 22 Q0 0 22 0 Z" fill="url(#shineGradient)"/>

  <!-- 심플한 고양이 얼굴 -->
  <g transform="translate(15, 18)">
    <!-- 왼쪽 귀 -->
    <path d="M12 28 L5 5 L25 20 Z" fill="white"/>
    <!-- 오른쪽 귀 -->
    <path d="M58 28 L65 5 L45 20 Z" fill="white"/>
    <!-- 귀 안쪽 (왼쪽) -->
    <path d="M13 24 L9 10 L22 19 Z" fill="#C7D2FE"/>
    <!-- 귀 안쪽 (오른쪽) -->
    <path d="M57 24 L61 10 L48 19 Z" fill="#C7D2FE"/>
    <!-- 얼굴 -->
    <ellipse cx="35" cy="42" rx="30" ry="26" fill="white"/>
    <!-- 왼쪽 눈 -->
    <ellipse cx="22" cy="38" rx="5" ry="6" fill="#3730A3"/>
    <circle cx="23" cy="36" r="2" fill="white"/>
    <!-- 오른쪽 눈 -->
    <ellipse cx="48" cy="38" rx="5" ry="6" fill="#3730A3"/>
    <circle cx="49" cy="36" r="2" fill="white"/>
    <!-- 코 -->
    <ellipse cx="35" cy="50" rx="3.5" ry="2.5" fill="#C7D2FE"/>
    <!-- 입 -->
    <path d="M35 52.5 Q30 58 26 55" stroke="#C7D2FE" stroke-width="1.8" fill="none" stroke-linecap="round"/>
    <path d="M35 52.5 Q40 58 44 55" stroke="#C7D2FE" stroke-width="1.8" fill="none" stroke-linecap="round"/>
    <!-- 수염 (왼쪽) -->
    <line x1="2" y1="42" x2="14" y2="44" stroke="#E0E7FF" stroke-width="1.2" stroke-linecap="round"/>
    <line x1="2" y1="48" x2="14" y2="48" stroke="#E0E7FF" stroke-width="1.2" stroke-linecap="round"/>
    <line x1="4" y1="54" x2="14" y2="52" stroke="#E0E7FF" stroke-width="1.2" stroke-linecap="round"/>
    <!-- 수염 (오른쪽) -->
    <line x1="68" y1="42" x2="56" y2="44" stroke="#E0E7FF" stroke-width="1.2" stroke-linecap="round"/>
    <line x1="68" y1="48" x2="56" y2="48" stroke="#E0E7FF" stroke-width="1.2" stroke-linecap="round"/>
    <line x1="66" y1="54" x2="56" y2="52" stroke="#E0E7FF" stroke-width="1.2" stroke-linecap="round"/>
  </g>
</svg>